# xmcd
#
# Track frame offsets:
#	150
#	12120
#	33781
#	39720
#	51500
#	61570
#	77383
#	88859
#	113193
#	129821
#	143665
#	151113
#	164395
#	182922
#	206335
#	228619
#
# Disc length: 3353 seconds
#
# Revision: 0
# Processed by: cddbd v1.5.1PL0 Copyright (c) Steve Scherf et al.
# Submitted via: dBpowerAMP V4.0
#
DISCID=c10d1710
DTITLE=雲南民歌(二) - 雲南民歌(二)
DYEAR=1900
DGENRE=
TTITLE0=白族三道茶
TTITLE1=有一個美麗的地方
TTITLE2=猜調
TTITLE3=馬玲響來玉鳥唱
TTITLE4=美麗的瀘沽湖
TTITLE5=趕馬人之歌
TTITLE6=彝族酒歌
TTITLE7=阿老表你要來尼嘎
TTITLE8=滿山葡萄紅艷艷
TTITLE9=緬桂花開十里香
TTITLE10=一個明鏡洱海清
TTITLE11=長湖水清又涼
TTITLE12=越唱心裡越快活
TTITLE13=弦子彈到你門前
TTITLE14=一生做相好
TTITLE15=月光下的風尾竹
EXTD=
EXTT0=
EXTT1=
EXTT2=
EXTT3=
EXTT4=
EXTT5=
EXTT6=
EXTT7=
EXTT8=
EXTT9=
EXTT10=
EXTT11=
EXTT12=
EXTT13=
EXTT14=
EXTT15=
PLAYORDER=
